<svg width="3000" height="1228" viewBox="0 0 3000 1228" fill="none" xmlns="http://www.w3.org/2000/svg">
<path fill-rule="evenodd" clip-rule="evenodd" d="M110.227 1188.92H20V1206.42H519.618V891.301H504.804C504.804 891.301 504.804 1073.1 444.204 1132.36C393.03 1183.53 339.163 1187.57 251.629 1187.57V607.152C251.629 607.152 312.229 603.112 341.856 632.739C387.643 678.526 393.03 737.78 393.03 819.927H409.19V375.523H393.03C393.03 457.671 388.99 516.924 341.856 562.712C312.229 592.338 251.629 588.298 251.629 588.298V37.5068C339.163 37.5068 380.91 42.8935 432.084 92.7207C491.338 151.975 492.684 333.776 492.684 333.776H507.498V20H20V37.5068H110.227V1188.92Z" fill="black"/>
<path fill-rule="evenodd" clip-rule="evenodd" d="M1086.57 37.5068V1188.92C1174.1 1188.92 1227.97 1183.53 1279.14 1133.7C1338.4 1074.45 1339.75 892.648 1339.75 892.648H1354.56V1207.77H854.941V1190.26H945.168V36.1601H854.941V20H1168.72V37.5068H1086.57Z" fill="black"/>
<path fill-rule="evenodd" clip-rule="evenodd" d="M1889.19 37.5068V1188.92C1976.72 1188.92 2030.59 1183.53 2081.77 1133.7C2141.02 1074.45 2142.37 892.648 2142.37 892.648H2157.18V1207.77H1657.56V1190.26H1747.79V36.1601H1657.56V20H1971.34V37.5068H1889.19Z" fill="black"/>
<path fill-rule="evenodd" clip-rule="evenodd" d="M2570.61 1188.92H2480.38V1206.42H2980V891.301H2965.19C2965.19 891.301 2965.19 1073.1 2904.59 1132.36C2853.41 1183.53 2799.54 1187.57 2712.01 1187.57V607.152C2712.01 607.152 2772.61 603.112 2802.24 632.739C2848.03 678.526 2853.41 737.78 2853.41 819.927H2869.57V375.523H2853.41C2853.41 457.671 2849.37 516.924 2802.24 562.712C2772.61 592.338 2712.01 588.298 2712.01 588.298V37.5068C2799.54 37.5068 2841.29 42.8935 2892.47 92.7207C2951.72 151.975 2953.07 333.776 2953.07 333.776H2967.88V20H2480.38V37.5068H2570.61V1188.92Z" fill="black"/>
</svg>