<svg width="294" height="147" viewBox="0 0 294 147" fill="none" xmlns="http://www.w3.org/2000/svg">
<g clip-path="url(#clip0_4075_3010)">
<path d="M284.216 107.804C289.825 97.2534 292.706 85.4533 292.601 73.5C292.659 33.1369 259.861 0.259342 219.277 0C180.681 0.247554 148.987 30.3902 146.012 68.4075C146.106 66.5449 145.953 64.6352 145.953 62.9966H78.2157V93.7994L99.8659 94.4949C93.4802 102.11 83.9193 107.191 73.3353 107.097C54.9427 107.215 39.9369 92.3613 39.8193 73.9126C39.8193 73.7711 39.8193 73.6297 39.8193 73.4882C39.784 55.1574 54.7427 40.1391 73.3353 39.8916C85.7068 40.1509 96.6083 47.0353 102.665 57.3972L136.886 37.7933C124.044 14.6293 99.76 0.176824 73.3235 0C32.7398 0.247554 -0.0588436 33.1251 -4.35749e-05 73.5C-0.129404 113.957 32.4693 146.87 72.8296 147C72.9943 147 73.1589 147 73.3235 147C112.167 147.094 144.001 116.586 146.647 78.4039C148.588 116.586 180.434 147.106 219.277 147C233.577 147.094 246.807 143.063 257.685 135.801L266.764 144.902L294 117.6L284.216 107.804ZM252.793 78.4039L245.807 72.109L219.971 99.4107L227.65 106.413C224.886 106.908 222.076 107.144 219.265 107.108C200.931 107.203 185.973 92.1962 185.749 73.5118C186.055 55.0867 200.884 40.2217 219.265 39.9152C237.869 40.1745 252.828 55.181 252.781 73.5118C252.84 75.2565 252.722 76.8361 252.793 78.4039Z" fill="black"/>
</g>
<defs>
<clipPath id="clip0_4075_3010">
<rect width="294" height="147" fill="white"/>
</clipPath>
</defs>
</svg>