<?xml version="1.0" encoding="utf-8"?>
<svg version="1.1" id="layer" xmlns="http://www.w3.org/2000/svg" xmlns:xlink="http://www.w3.org/1999/xlink" x="0px" y="0px"
	 viewBox="0 0 652 652" style="enable-background:new 0 0 652 652;" xml:space="preserve">
<path d="M359.8,341.8c24.4,0,24.4-18,24.4-36.6c0-18.7,0-36.6-24.4-36.6c-24.4,0-24.4,17.8-24.4,36.6
	C335.4,323.8,335.4,341.8,359.8,341.8L359.8,341.8z M359.8,279.3c8.3,0,9.4,7.9,9.4,26c0,18.1-1.1,26-9.4,26c-8.3,0-9.4-7.8-9.4-26
	C350.4,287.1,351.5,279.3,359.8,279.3L359.8,279.3z M441.8,321.9c0-9.7-2.7-16.5-13.2-17.9v-0.2c8-1.6,12.1-7.4,12.1-15.6
	c0-15.1-9.3-18.3-20.6-18.3h-26.3v70.7H420C426.2,340.6,441.8,339.8,441.8,321.9L441.8,321.9z M408.6,280.7h9.1
	c4.9-0.1,8.8,4.1,8.5,9c0,6.9-4.5,9-7.7,9h-9.9V280.7z M408.6,329.7v-20.1h8.6c7.4,0,9.8,3.8,9.8,10.1c0,9.9-7.1,10-10.2,10H408.6z
	 M466.6,269.9h-14.8v70.7h14.8V269.9z M286.4,288.2h0.2l19.3,52.4h19.5v-70.7h-13.8v49.6h-0.2l-18.8-49.6h-20v70.7h13.8V288.2z
	 M518,329.7h-24.6v-20.7h22v-10.9h-22v-16.8h23.8v-11.5h-38.6v70.7H518V329.7z M36.6,309.1h16.9v31.5h14.8v-70.7H53.6v28.3H36.6
	v-28.3H21.8v70.7h14.8V309.1z M606.7,269.9l-11.3,29.9l-10.6-29.9h-62.8v11.5h18.4v59.3h14.2v-59.3h18.6l13.9,34.8v24.5H602v-24.5
	l19.8-46.3H606.7z M95.4,269.9H80.6v70.7h14.8V269.9z M178.6,309.1h17v31.5h14.8v-70.7h-14.8v28.3h-17v-28.3h-14.8v70.7h14.8V309.1z
	 M133,341.8c6.7-0.3,13.4-1.1,20-2.4v-35.9h-22.8v10.9h8v15.7c-2.4,0.9-4.8,1.3-7.4,1.4c-8.4,0-10.6-3.9-10.6-26.1
	c0-13.7,0-26.2,9.2-26.2c7.8,0,8.9,5.8,8.8,12.3H153c0.9-14.8-8.1-22.9-22.7-22.9c-24.2,0-25.1,18.1-25.1,36
	C105.2,331.5,108.1,341.8,133,341.8L133,341.8z M239.1,341.8c11.3,0,24.7-2.2,24.7-20.5c0-22.2-29.8-21.1-29.8-34.5
	c-0.4-4.4,3.3-8,7.6-7.5c6,0,6.9,5.4,6.9,10.7h14.4c1-14.8-6.2-21.3-20.6-21.3c-18,0-23.3,8.8-23.3,19.9c0,21.1,29.8,21.9,29.8,34.6
	c0.6,4.4-3,8.3-7.4,8c-8.1,0-8.4-5.7-8.4-12.5h-14.8C217.3,331,220.8,341.8,239.1,341.8L239.1,341.8z M21.8,373.3H602v-10.9H21.8
	V373.3z M21.8,373.3"/>
</svg>
