<svg width="184" height="32" viewBox="0 0 184 32" fill="none" xmlns="http://www.w3.org/2000/svg">
<g clip-path="url(#clip0_4075_3008)">
<path d="M103.374 22.356C110.836 22.356 110.836 16.842 110.836 11.178C110.836 5.454 110.836 0 103.374 0C95.912 0 95.912 5.454 95.912 11.178C95.912 16.842 95.912 22.356 103.374 22.356ZM103.374 3.236C105.921 3.236 106.251 5.634 106.251 11.178C106.251 16.722 105.921 19.12 103.374 19.12C100.827 19.12 100.497 16.722 100.497 11.178C100.497 5.634 100.827 3.236 103.374 3.236ZM128.444 16.272C128.444 13.306 127.604 11.238 124.398 10.788V10.728C126.856 10.249 128.084 8.451 128.084 5.963C128.084 1.348 125.237 0.36 121.791 0.36H113.759V21.997H121.761C123.679 21.997 128.444 21.757 128.444 16.272V16.272ZM118.284 3.686H121.072C121.428 3.68322 121.781 3.7538 122.108 3.89333C122.436 4.03287 122.731 4.23838 122.976 4.49705C123.22 4.75572 123.409 5.06199 123.53 5.39679C123.651 5.73159 123.702 6.08772 123.679 6.443C123.679 8.541 122.3 9.2 121.311 9.2H118.284V3.686ZM118.284 18.67V12.527H120.922C123.199 12.527 123.919 13.695 123.919 15.613C123.919 18.64 121.761 18.67 120.802 18.67H118.284ZM136.03 0.36H131.505V21.997H136.03V0.36ZM80.925 5.977H80.985L86.888 21.997H92.852V0.36H88.627V15.54H88.567L82.813 0.36H76.699V21.997H80.925V5.977ZM151.739 18.67H144.218V12.347H150.931V9.02H144.218V3.876H151.5V0.36H139.692V21.997H151.739V18.67ZM4.53 12.347H9.714V21.997H14.239V0.36H9.713V9.02H4.53V0.36H0.004V21.997H4.529L4.53 12.347ZM178.869 0.36L175.422 9.5L172.185 0.36H152.995V3.876H158.619V21.996H162.948V3.877H168.648L172.904 14.506V21.998H177.43V14.506L183.483 0.359L178.869 0.36ZM22.512 0.36H17.986V21.997H22.512V0.36ZM47.944 12.347H53.128V21.997H57.654V0.36H53.128V9.02H47.944V0.36H43.42V21.997H47.945L47.944 12.347ZM33.998 22.357C36.0511 22.2695 38.0948 22.0289 40.112 21.637V10.669H33.13V13.995H35.588V18.79C34.8662 19.0503 34.1071 19.1922 33.34 19.21C30.763 19.21 30.103 18.01 30.103 11.238C30.103 7.042 30.103 3.236 32.921 3.236C35.318 3.236 35.648 5.004 35.617 7.012H40.113C40.383 2.487 37.625 0 33.19 0C25.788 0 25.518 5.544 25.518 10.998C25.518 19.209 26.388 22.356 33.999 22.356L33.998 22.357ZM66.446 22.357C69.892 22.357 73.998 21.697 73.998 16.093C73.998 9.29 64.888 9.65 64.888 5.544C64.8561 5.23051 64.8948 4.91384 65.0014 4.6173C65.108 4.32075 65.2797 4.05188 65.5039 3.83045C65.7281 3.60903 65.9991 3.44068 66.297 3.33781C66.5948 3.23493 66.9119 3.20014 67.225 3.236C69.053 3.236 69.323 4.885 69.323 6.503H73.728C74.03 1.978 71.841 0 67.436 0C61.922 0 60.304 2.697 60.304 6.083C60.304 12.527 69.414 12.766 69.414 16.662C69.4584 16.9797 69.4315 17.3033 69.3354 17.6094C69.2393 17.9154 69.0763 18.1963 68.8583 18.4315C68.6402 18.6668 68.3725 18.8507 68.0747 18.9697C67.7768 19.0888 67.4562 19.1401 67.136 19.12C64.649 19.12 64.559 17.382 64.559 15.314H60.034C59.794 19.06 60.843 22.356 66.447 22.356L66.446 22.357ZM0 32H177.412V28.674H0V32Z" fill="black"/>
</g>
<defs>
<clipPath id="clip0_4075_3008">
<rect width="184" height="32" fill="white"/>
</clipPath>
</defs>
</svg>