<svg width="1031" height="245" viewBox="0 0 1031 245" fill="none" xmlns="http://www.w3.org/2000/svg">
<path d="M138.5 86.0996H104.5V122.1H138.5C143.3 122.1 147.9 120.2 151.2 116.8C154.6 113.4 156.5 108.8 156.5 104.1C156.5 99.2996 154.6 94.6996 151.2 91.3996C147.8 87.9996 143.3 86.0996 138.5 86.0996Z" fill="black"/>
<path d="M122.5 2.09961C56.2 2.09961 2.5 55.7996 2.5 122.1C2.5 188.4 56.2 242.1 122.5 242.1C188.8 242.1 242.5 188.4 242.5 122.1C242.5 55.8996 188.8 2.09961 122.5 2.09961ZM168.2 133.8C160.3 141.7 149.6 146.1 138.5 146.1H104.5V182.1H80.5V62.0996H138.5C149.6 62.0996 160.3 66.4996 168.2 74.3996C176.1 82.2996 180.5 92.9996 180.5 104.1C180.5 115.3 176.1 126 168.2 133.8Z" fill="black"/>
<path d="M322.5 162.1V82.0996H359.3C376.4 82.0996 385.7 93.6996 385.7 107.4C385.7 121.1 376.3 132.6 359.3 132.6H339.3V162.1H322.5ZM368.6 107.5C368.6 100.9 363.5 96.8996 356.9 96.8996H339.2V118H356.9C363.5 118 368.6 114 368.6 107.5Z" fill="black"/>
<path d="M395.8 162.099V103.799H410.8V111.499C414.9 106.599 421.9 102.399 428.9 102.399V116.999C427.5 116.699 426.2 116.599 424.8 116.599C419.9 116.599 413.3 119.399 410.8 123.099V162.099H395.8Z" fill="black"/>
<path d="M434.6 132.199C434.6 116.099 445.9 102.399 464.6 102.399C483.3 102.399 494.8 116.099 494.8 132.199C494.8 148.299 483.5 162.099 464.7 162.099C445.9 162.099 434.6 148.399 434.6 132.199ZM479.3 132.199C479.3 123.399 474.1 115.699 464.7 115.699C455.3 115.699 450.2 123.399 450.2 132.199C450.2 140.999 455.4 148.799 464.7 148.799C474 148.799 479.3 141.099 479.3 132.199Z" fill="black"/>
<path d="M545.1 162.099V153.399C543.1 156.099 540.4 158.299 537.4 159.799C534.4 161.299 531 162.099 527.6 162.099C513.3 162.099 502.4 151.299 502.4 132.199C502.4 113.699 513.1 102.399 527.6 102.399C531 102.399 534.4 103.099 537.4 104.699C540.4 106.199 543.1 108.399 545.1 111.199V82.1992H560.2V162.199H545.1V162.099ZM545.1 142.299V122.199C542.6 118.399 537.2 115.699 532.3 115.699C523.7 115.699 517.8 122.399 517.8 132.199C517.8 141.999 523.7 148.799 532.3 148.799C537.3 148.799 542.7 146.099 545.1 142.299Z" fill="black"/>
<path d="M613.5 162.1V153.5C610.9 156.2 607.8 158.4 604.4 159.9C601 161.4 597.2 162.1 593.5 162.1C581 162.1 575.1 155.3 575.1 144.2V103.8H590.1V138.3C590.1 146.2 594.2 148.8 600.6 148.8C603.1 148.8 605.6 148.2 607.8 147C610.1 145.9 612 144.3 613.6 142.3V103.8H628.6V162.1H613.5V162.1Z" fill="black"/>
<path d="M639.7 132.199C639.7 114.799 652.4 102.399 669.9 102.399C681.6 102.399 688.6 107.499 692.4 112.599L682.6 121.799C681.3 119.799 679.5 118.199 677.4 117.199C675.3 116.099 673 115.599 670.6 115.699C661.5 115.699 655.2 122.299 655.2 132.199C655.2 142.099 661.6 148.799 670.6 148.799C673 148.799 675.3 148.299 677.4 147.199C679.5 146.099 681.3 144.499 682.6 142.599L692.4 151.799C688.6 156.999 681.6 162.199 669.9 162.199C652.5 162.099 639.7 149.799 639.7 132.199Z" fill="black"/>
<path d="M705.3 146.5V116.9H695.9V103.8H705.3V88.2998H720.3V103.9H731.8V117H720.2V142.6C720.2 146.2 722.1 149 725.4 149C727.6 149 729.8 148.2 730.6 147.2L733.8 158.6C731.6 160.6 727.6 162.3 721.3 162.3C710.8 162.1 705.3 156.7 705.3 146.5Z" fill="black"/>
<path d="M827.6 162.1V127.6H790.5V162.1H773.8V82.0996H790.5V113H827.6V82.0996H844.5V162.1H827.6Z" fill="black"/>
<path d="M898 162.1V153.5C895.4 156.2 892.3 158.4 888.9 159.9C885.5 161.4 881.7 162.1 878 162.1C865.5 162.1 859.6 155.3 859.6 144.2V103.8H874.6V138.3C874.6 146.2 878.7 148.8 885.1 148.8C887.6 148.8 890.1 148.2 892.3 147C894.6 145.9 896.5 144.3 898.1 142.3V103.8H913.1V162.1H898V162.1Z" fill="black"/>
<path d="M966.2 162.1V126.3C966.2 118.4 962.1 115.7 955.7 115.7C953.2 115.7 950.7 116.4 948.4 117.5C946.1 118.6 944.2 120.3 942.7 122.3V162.1H927.7V103.8H942.7V111.1C945.2 108.3 948.3 106.1 951.7 104.6C955.1 103.1 958.8 102.3 962.6 102.4C975.2 102.4 981.2 109.5 981.2 120.5V162.1H966.2Z" fill="black"/>
<path d="M999.2 146.5V116.9H989.8V103.8H999.2V88.2998H1014.2V103.9H1025.7V117H1014.2V142.6C1014.2 146.2 1016.1 149 1019.4 149C1021.6 149 1023.8 148.2 1024.6 147.2L1027.8 158.6C1025.6 160.6 1021.6 162.3 1015.3 162.3C1004.7 162.1 999.2 156.7 999.2 146.5Z" fill="black"/>
</svg>